<svg xmlns="http://www.w3.org/2000/svg" width="58" height="39"><defs><filter id="a" width="129.6%" height="145.7%" x="-14.8%" y="-22.9%" filterUnits="objectBoundingBox"><feOffset dy="2" in="SourceAlpha" result="shadowOffsetOuter1"/><feGaussianBlur in="shadowOffsetOuter1" result="shadowBlurOuter1" stdDeviation="1"/><feColorMatrix in="shadowBlurOuter1" result="shadowMatrixOuter1" values="0 0 0 0 0 0 0 0 0 0 0 0 0 0 0 0 0 0 0.117385643 0"/><feMerge><feMergeNode in="shadowMatrixOuter1"/><feMergeNode in="SourceGraphic"/></feMerge></filter></defs><g fill="none"><path fill="#FFF" d="M52.2 35H1.8C.808 35 0 34.165 0 33.134V1.866C0 .836.807 0 1.8 0h50.4c.993 0 1.8.835 1.8 1.866v31.268c0 1.03-.807 1.866-1.8 1.866z" filter="url(#a)" transform="translate(2)"/><path fill="#000" d="M8.262 6.001c.146 0 .263.12.263.268v20.224a.265.265 0 01-.262.268.265.265 0 01-.263-.268V6.267C8 6.12 8.117 6 8.262 6v.001zm1.103 0c.173 0 .314.144.314.321v20.116a.319.319 0 01-.315.322.319.319 0 01-.315-.322V6.324c0-.18.142-.323.316-.323zm4.722 0c.174 0 .315.144.315.321v20.116c0 .115-.06.22-.158.278a.31.31 0 01-.314 0 .322.322 0 01-.157-.278V6.324c0-.18.14-.323.314-.323zm1.312 0c.203 0 .368.168.368.375v20.008a.371.371 0 01-.368.375.371.371 0 01-.367-.375V6.376c0-.207.165-.375.367-.375zm1.26 0c.202 0 .367.168.367.375v20.008a.371.371 0 01-.367.375.371.371 0 01-.367-.375V6.376a.37.37 0 01.367-.375zm-4.513 0c.607 0 1.101.503 1.101 1.125v18.509c0 .621-.493 1.125-1.102 1.125a1.114 1.114 0 01-1.102-1.125V7.125c0-.62.494-1.124 1.103-1.124zm6.507 0c.607 0 1.102.503 1.102 1.125v18.509c0 .402-.21.773-.551.974-.341.2-.761.2-1.102 0a1.13 1.13 0 01-.55-.974V7.125c0-.62.492-1.124 1.1-1.124zm3.253 0c.237 0 .464.096.631.266.168.17.262.402.262.644v18.94c0 .503-.4.91-.893.91a.902.902 0 01-.892-.91V6.912c0-.242.094-.473.261-.644A.882.882 0 0121.906 6zm1.522 0c.058 0 .105.049.105.108v20.544a.106.106 0 01-.104.095.106.106 0 01-.105-.095V6.11c0-.06.047-.108.104-.108zm.84 0c.116 0 .21.097.21.214v20.33a.212.212 0 01-.21.215.212.212 0 01-.21-.214V6.215c0-.117.095-.214.21-.214zm1.312 0c.318 0 .578.264.578.59v19.58a.593.593 0 01-.28.534.568.568 0 01-.594 0 .593.593 0 01-.28-.534V6.59c0-.326.257-.59.576-.59zm1.363 0c.146 0 .264.12.264.268v20.224a.265.265 0 01-.262.268.265.265 0 01-.262-.268V6.267c0-.147.117-.267.262-.267l-.002.001zm1.103 0c.176 0 .316.144.316.321v20.116a.319.319 0 01-.315.322.319.319 0 01-.315-.322V6.324c0-.18.14-.323.314-.323zm1.05 0c.059 0 .105.049.105.108v20.544a.106.106 0 01-.105.095.106.106 0 01-.105-.095V6.11c0-.06.048-.108.106-.108zm1.784 0c.638 0 1.156.528 1.156 1.178v18.402c0 .65-.517 1.178-1.155 1.178a1.166 1.166 0 01-1.154-1.178V7.18c0-.65.516-1.178 1.153-1.178zm8.555 0a1.22 1.22 0 011.207 1.232v18.296c0 .68-.54 1.232-1.207 1.232a1.22 1.22 0 01-1.207-1.232V7.233c0-.68.54-1.232 1.207-1.232zm2.1 0a.37.37 0 01.366.375v20.008a.372.372 0 01-.367.376.372.372 0 01-.368-.376V6.376c0-.207.164-.375.368-.375zm1.257 0c.203 0 .369.168.369.375v20.008a.371.371 0 01-.367.375.371.371 0 01-.367-.375V6.376a.37.37 0 01.365-.375zm1.103 0c.058 0 .106.049.106.108v20.544a.108.108 0 01-.049.103.104.104 0 01-.112 0 .108.108 0 01-.049-.103V6.11c0-.06.046-.108.104-.108zm.84 0c.116 0 .21.097.21.214v20.33a.212.212 0 01-.21.215.212.212 0 01-.21-.214V6.215c0-.117.094-.214.21-.214zm.802 0c.037 0 .067.031.067.07v20.62c0 .039-.03.07-.067.07a.068.068 0 01-.068-.07V6.072c0-.039.03-.07.068-.07zm1.14 0c.318 0 .577.264.577.59v19.58c0 .326-.259.59-.578.59a.584.584 0 01-.577-.59V6.59c0-.326.259-.59.577-.59zm1.312 0c.116 0 .209.097.209.214v20.33a.211.211 0 01-.21.214.211.211 0 01-.209-.213V6.215c0-.117.093-.214.21-.214zm.945 0c.114 0 .209.097.209.214v20.33a.211.211 0 01-.21.214.211.211 0 01-.209-.213V6.215c0-.117.093-.214.21-.214zm-16.007 0c.202 0 .368.168.368.375v20.008a.371.371 0 01-.367.375.371.371 0 01-.367-.375V6.376a.37.37 0 01.366-.375zm1.208 0c.173 0 .314.144.314.321v20.116c0 .177-.14.321-.314.321a.318.318 0 01-.315-.32V6.323c0-.18.14-.323.315-.323zm2.414 0c.172 0 .314.144.314.321v20.116a.319.319 0 01-.315.322.319.319 0 01-.315-.322V6.324c0-.18.141-.323.316-.323zm.996 0a.16.16 0 01.158.162v20.436a.16.16 0 01-.157.147.16.16 0 01-.158-.147V6.163c0-.09.07-.162.157-.162zm-2.203 0c.202 0 .367.168.367.375v20.008a.372.372 0 01-.368.376.372.372 0 01-.368-.376V6.376c0-.207.165-.375.369-.375zm-24.98 0c.087 0 .157.072.157.162v20.436a.16.16 0 01-.157.147.16.16 0 01-.157-.147V6.163c0-.09.07-.162.156-.162zm10.023 0c.058 0 .105.049.105.108v20.544a.108.108 0 01-.048.103.104.104 0 01-.112 0 .108.108 0 01-.049-.103V6.11c0-.06.046-.108.104-.108z"/><path fill="#FFF" d="M45.437 21.171c-.49-.515-1.37-1.13-2.786-1.13-.85 0-1.626.203-2.308.605a1.567 1.567 0 00-.832-.463 1.58 1.58 0 00-1.55-1.322h-1.036a1.57 1.57 0 00-1.374.82l-.443.807-.545.238c-.617-.454-1.395-.686-2.317-.686-.765 0-1.478.17-2.126.499l.171-.83c.1-.473-.017-.967-.316-1.344a1.56 1.56 0 00-1.223-.594h-1.606a1.58 1.58 0 00-1.54 1.273l-.431 2.07c-.5-.504-1.365-1.074-2.73-1.074a4.465 4.465 0 00-2.315.612 3.012 3.012 0 00-1.16-1.638c-.692-.492-1.59-.73-2.746-.73h-2.272a1.58 1.58 0 00-1.54 1.273l-1.649 7.952a1.63 1.63 0 00.317 1.343 1.56 1.56 0 001.222.594h2.787c1.326 0 2.418-.348 3.247-1.034.077-.063.155-.132.233-.209.068.083.137.161.21.237.71.73 1.67 1.115 2.782 1.115.965 0 1.826-.257 2.562-.76.014.018.024.038.04.056a1.56 1.56 0 001.222.595h1.607c.634 0 1.193-.387 1.44-.962.716.71 1.67 1.07 2.838 1.07 1.018 0 1.955-.214 2.785-.637a1.61 1.61 0 00.32-.218 2.1 2.1 0 00.107.105c.546.497 1.296.75 2.225.75.785 0 1.49-.15 2.097-.444.192-.094.36-.225.497-.382.667.541 1.51.827 2.464.827.967 0 1.83-.257 2.565-.761a4.652 4.652 0 001.651-2.067c.336-.792.506-1.69.506-2.672 0-1.178-.353-2.148-1.05-2.884"/><path fill="#000" d="M14.928 23.038h.795c.43 0 .754-.088.968-.265.216-.174.324-.428.324-.757 0-.498-.303-.747-.908-.747h-.81l-.369 1.769zm-.71 3.41h.961c.416 0 .743-.105.98-.316.235-.21.354-.503.354-.876 0-.587-.325-.882-.977-.882h-.88l-.438 2.074zm2.006-6.56c.814 0 1.431.148 1.847.443.416.296.624.737.624 1.325 0 .544-.149.992-.443 1.346-.296.354-.716.588-1.26.704v.033c.357.094.64.269.85.524.213.257.32.584.32.983 0 .83-.273 1.47-.817 1.92-.544.45-1.296.675-2.257.675h-2.784l1.65-7.952h2.272-.002zm6.866 4.167c0-.715-.253-1.072-.762-1.072a.97.97 0 00-.717.33c-.212.222-.385.547-.517.976a4.359 4.359 0 00-.201 1.321c0 .671.267 1.006.8 1.006a.977.977 0 00.721-.334c.213-.223.378-.533.5-.93.117-.398.178-.83.178-1.297h-.002zm1.618 0c0 .764-.126 1.442-.377 2.035a3.07 3.07 0 01-1.085 1.372c-.473.325-1.036.487-1.687.487-.692 0-1.247-.213-1.66-.639-.416-.427-.622-.992-.622-1.7 0-.771.127-1.46.38-2.064a3.13 3.13 0 011.103-1.404c.48-.33 1.041-.497 1.685-.497.698 0 1.249.214 1.654.642.405.427.609 1.017.609 1.768zm2.284 3.786h-1.607l1.76-8.465h1.607l-1.76 8.465zm5.153-5.015c-.313 0-.608.144-.886.434-.276.29-.459.645-.544 1.06h.24c.551 0 .98-.086 1.288-.263.308-.176.462-.413.462-.716 0-.344-.186-.515-.56-.515zm-.874 5.123c-.746 0-1.327-.205-1.738-.614-.413-.41-.62-.99-.62-1.736 0-.75.147-1.434.44-2.053.294-.618.691-1.09 1.193-1.415a3.064 3.064 0 011.701-.486c.63 0 1.121.148 1.473.444.351.295.528.7.528 1.215 0 .678-.297 1.201-.89 1.57-.595.367-1.443.552-2.546.552h-.27l-.012.114v.109c0 .33.092.59.274.78.184.19.446.286.787.286.31 0 .59-.034.844-.103.316-.094.623-.216.918-.365v1.234c-.613.313-1.307.468-2.082.468zm5.99-1.322c.231 0 .52-.063.864-.19v1.223c-.394.193-.868.29-1.417.29-.535 0-.928-.115-1.177-.344-.251-.228-.377-.58-.377-1.06 0-.18.022-.385.063-.61l.615-2.931h-.81l.154-.8 1.045-.457.704-1.284h1.036l-.262 1.295h1.51l-.267 1.246h-1.504l-.614 2.932a1.56 1.56 0 00-.032.289c0 .267.156.4.47.4zm6.035-2.572c0-.715-.255-1.072-.763-1.072a.97.97 0 00-.718.33c-.212.222-.383.547-.517.976a4.4 4.4 0 00-.2 1.321c0 .671.266 1.006.8 1.006a.977.977 0 00.72-.334c.214-.223.38-.533.5-.93.119-.398.178-.83.178-1.297zm1.616 0c0 .764-.124 1.442-.375 2.035a3.07 3.07 0 01-1.086 1.372c-.472.325-1.035.487-1.687.487-.693 0-1.248-.213-1.66-.639-.415-.427-.622-.992-.622-1.7 0-.771.126-1.46.38-2.064a3.13 3.13 0 011.102-1.404c.48-.33 1.043-.497 1.687-.497.696 0 1.247.214 1.653.642.405.427.608 1.017.608 1.768z"/></g></svg>