<svg xmlns="http://www.w3.org/2000/svg" width="58" height="39"><defs><filter id="a" width="129.6%" height="145.7%" x="-14.8%" y="-22.9%" filterUnits="objectBoundingBox"><feOffset dy="2" in="SourceAlpha" result="shadowOffsetOuter1"/><feGaussianBlur in="shadowOffsetOuter1" result="shadowBlurOuter1" stdDeviation="1"/><feColorMatrix in="shadowBlurOuter1" result="shadowMatrixOuter1" values="0 0 0 0 0 0 0 0 0 0 0 0 0 0 0 0 0 0 0.117385643 0"/><feMerge><feMergeNode in="shadowMatrixOuter1"/><feMergeNode in="SourceGraphic"/></feMerge></filter></defs><g fill="none"><path fill="#FFF" d="M52.2 35H1.8C.808 35 0 34.165 0 33.134V1.866C0 .836.807 0 1.8 0h50.4c.993 0 1.8.835 1.8 1.866v31.268c0 1.03-.807 1.866-1.8 1.866z" filter="url(#a)" transform="translate(2)"/><path fill="#050302" d="M30.036 18.339c3.038.015 5.81-2.527 5.81-5.622 0-3.382-2.772-5.72-5.81-5.717h-2.613c-3.074-.003-5.604 2.337-5.604 5.717 0 3.095 2.53 5.637 5.602 5.622h2.615z"/><path fill="#FFF" d="M27.435 7.467c-2.764.065-4.971 2.37-4.971 5.191 0 2.821 2.207 5.126 4.97 5.191 2.81 0 5.088-2.324 5.088-5.19 0-2.868-2.278-5.192-5.087-5.192m-3.224 5.194c.001-1.362.824-2.583 2.07-3.072v6.141c-1.245-.488-2.068-1.708-2.07-3.069m4.378 3.07V9.59c1.246.488 2.069 1.709 2.07 3.07-.001 1.362-.824 2.583-2.07 3.071"/><path fill="#050302" d="M15.56 19.398c0-.54-.275-.504-.54-.51v-.157c.23.013.465.013.694.013.246 0 .58-.013 1.017-.013 1.521 0 2.349 1.038 2.349 2.098 0 .594-.34 2.088-2.42 2.088-.3 0-.577-.013-.851-.013-.265 0-.524.006-.789.013v-.158c.353-.037.524-.048.54-.456v-2.906zm.575 2.81c0 .463.324.516.612.516 1.269 0 1.687-.977 1.687-1.87 0-1.121-.706-1.93-1.84-1.93-.241 0-.35.017-.459.023v3.261zm3.151.551h.111c.165 0 .282 0 .282-.197v-1.625c0-.262-.088-.3-.305-.419v-.096a6.4 6.4 0 00.628-.215.2.2 0 01.106-.03c.029 0 .04.035.04.083v2.301c0 .2.13.2.295.2h.1v.156c-.201 0-.405-.013-.617-.013-.212 0-.424.006-.64.013v-.158zm.63-3.506a.306.306 0 01-.29-.3c0-.15.142-.29.29-.29.15 0 .286.129.286.29a.298.298 0 01-.287.3zm1.185 1.721c0-.222-.065-.282-.34-.395v-.115c.252-.082.492-.16.774-.29.018 0 .035.015.035.062v.39c.335-.246.623-.45 1.018-.45.499 0 .675.372.675.84v1.546c0 .199.129.199.293.199h.107v.156c-.207 0-.412-.013-.624-.013-.21 0-.422.006-.634.013v-.158h.106c.165 0 .281 0 .281-.198V21.01c0-.342-.204-.51-.54-.51-.187 0-.487.156-.682.29v1.772c0 .199.13.199.295.199h.105v.156c-.205 0-.41-.013-.622-.013-.21 0-.424.006-.635.013v-.158h.107c.162 0 .28 0 .28-.198v-1.588.001zm3.007.288a1.56 1.56 0 000 .347c.036.57.395 1.038.865 1.038.324 0 .576-.18.793-.401l.081.082c-.27.367-.604.678-1.085.678-.936 0-1.123-.923-1.123-1.307 0-1.176.775-1.523 1.186-1.523.477 0 .989.306.993.941 0 .037 0 .072-.004.11l-.054.035h-1.652zm1.04-.193c.149 0 .165-.077.165-.149 0-.306-.181-.55-.51-.55-.36 0-.605.268-.676.7h1.022-.001zm.806 1.69h.158c.165 0 .282 0 .282-.197v-1.684c0-.185-.216-.22-.305-.27v-.09c.428-.186.663-.342.717-.342.035 0 .052.018.052.079v.54h.013c.145-.234.392-.619.752-.619.145 0 .334.102.334.317 0 .163-.112.307-.276.307-.183 0-.183-.144-.388-.144a.5.5 0 00-.428.497v1.41c0 .198.116.198.281.198h.33v.156c-.325-.007-.57-.013-.824-.013-.24 0-.486.006-.698.013v-.158zm2.261-.676c.077.395.31.73.741.73.346 0 .476-.215.476-.424 0-.708-1.282-.48-1.282-1.445 0-.336.266-.768.912-.768.187 0 .44.055.67.174l.04.612h-.135c-.058-.378-.265-.593-.64-.593-.235 0-.46.138-.46.396 0 .7 1.364.485 1.364 1.426 0 .395-.31.815-1.01.815-.236 0-.512-.084-.716-.204l-.065-.689.105-.03zm6.992-2.266h-.147c-.112-.703-.6-.984-1.257-.984-.676 0-1.658.462-1.658 1.901 0 1.211.847 2.08 1.751 2.08.58 0 1.064-.407 1.181-1.037l.135.036-.135.875c-.247.157-.91.317-1.298.317-1.375 0-2.244-.904-2.244-2.253 0-1.229 1.074-2.11 2.226-2.11.475 0 .936.155 1.387.318l.059.857zm.212 2.942h.11c.165 0 .284 0 .284-.197v-3.338c0-.39-.089-.402-.313-.468v-.097c.209-.067.412-.153.606-.257.063-.036.11-.066.128-.066.037 0 .048.036.048.084v4.142c0 .199.13.199.294.199h.098v.156c-.198 0-.405-.013-.615-.013-.212 0-.424.006-.64.013v-.158zm3.77-.173c0 .11.065.114.165.114.07 0 .158-.005.235-.005v.126a5.973 5.973 0 00-.845.185l-.03-.018v-.485c-.352.294-.622.503-1.04.503-.318 0-.647-.21-.647-.712v-1.536c0-.156-.023-.306-.351-.335v-.114c.21-.006.68-.042.756-.042.067 0 .067.042.067.174v1.546c0 .179 0 .695.51.695.199 0 .464-.155.71-.365v-1.613c0-.12-.282-.186-.493-.245v-.11c.529-.035.858-.082.918-.082.045 0 .045.042.045.108v2.21zm1.17-1.978c.234-.204.552-.432.876-.432.681 0 1.093.607 1.093 1.26 0 .785-.565 1.57-1.405 1.57-.435 0-.664-.145-.816-.21l-.176.138-.125-.066c.055-.352.083-.709.084-1.066v-2.58c0-.389-.089-.4-.313-.467v-.096a3.5 3.5 0 00.605-.257c.066-.036.113-.066.13-.066.036 0 .048.036.048.084v2.188zm0 1.63c0 .228.211.612.604.612.63 0 .894-.63.894-1.164 0-.647-.48-1.185-.94-1.185-.217 0-.4.144-.557.282v1.456zm-25.345 4.164h.045c.115 0 .237-.016.237-.186v-1.708c0-.171-.122-.186-.237-.186h-.045v-.1c.124 0 .317.014.473.014.161 0 .351-.013.501-.013v.099h-.044c-.115 0-.237.015-.237.186v1.708c0 .17.122.186.237.186h.044v.1c-.152 0-.345-.014-.505-.014-.156 0-.345.013-.47.013v-.099z"/><path fill="#050302" d="M15.988 26.514c-.154 0-.345-.014-.505-.014-.155 0-.343.014-.47.014H15v-.126h.058c.116-.002.221-.012.224-.172v-1.708c-.003-.16-.108-.171-.224-.172H15v-.127h.014c.126 0 .317.014.473.014.16 0 .351-.014.501-.014h.015v.127h-.06c-.115.001-.22.012-.22.172v1.708c0 .16.105.17.22.172h.06v.126h-.015zm-.013-.028v-.069h-.031c-.114 0-.25-.02-.25-.2v-1.71c0-.18.135-.2.25-.2h.03v-.07c-.146 0-.331.015-.485.015-.153 0-.338-.014-.46-.014v.069h.03c.114 0 .25.02.25.2v1.71c0 .18-.135.199-.25.199h-.03v.07c.124 0 .303-.014.454-.014.157 0 .342.014.492.014zm2.21-.628l.006-.007v-1.223c0-.268-.182-.306-.278-.306h-.07v-.1c.15 0 .297.014.447.014.13 0 .263-.013.394-.013v.099h-.047c-.135 0-.286.025-.286.413v1.485c0 .115.004.228.019.33h-.122l-1.646-1.874v1.345c0 .285.054.381.3.381h.056v.1c-.138 0-.276-.014-.414-.014-.143 0-.29.013-.433.013v-.099h.045c.22 0 .287-.153.287-.413v-1.375a.295.295 0 00-.086-.209.283.283 0 00-.205-.083h-.04v-.1c.12 0 .243.014.366.014.096 0 .19-.013.284-.013l1.423 1.635z"/><path fill="#050302" d="M18.37 26.562l-.131-.003-1.623-1.846v1.309c.004.282.046.364.286.366h.069v.126h-.013c-.14 0-.277-.013-.414-.013-.143 0-.29.014-.433.014h-.015v-.127h.058c.212-.001.273-.139.276-.4v-1.373a.283.283 0 00-.082-.199.271.271 0 00-.196-.08h-.056v-.126h.014c.121 0 .248.011.367.011.094 0 .189-.01.296-.007l1.405 1.614v-1.199c-.001-.262-.172-.29-.265-.293h-.085v-.126h.014c.151 0 .3.011.448.011.13 0 .262-.01.393-.01h.015v.123h-.062c-.133.006-.268.017-.27.4v1.486c0 .113.002.228.017.327l.004.016h-.016l-.001-.001zm-.122-.028h.107a2.079 2.079 0 01-.018-.314v-1.485c0-.391.162-.428.299-.428h.033v-.07c-.125 0-.25.015-.378.015-.148 0-.289-.014-.433-.014v.069h.054c.1 0 .293.044.293.32l-.004 1.235-.006.006-.01.01-1.422-1.64c-.096 0-.189.014-.286.014-.116 0-.236-.014-.354-.014v.069h.029c.15 0 .305.117.305.308v1.374c0 .26-.072.427-.303.427h-.03v.069c.138 0 .281-.013.42-.013.135 0 .268.014.399.014v-.069h-.04c-.252 0-.314-.113-.314-.396v-1.38l1.66 1.893zm-.063-.676l.01-.01-.01.01zm-.007-.007l-.003-.004.003.004zm.984-1.466c-.239 0-.248.06-.297.298h-.094c.01-.091.027-.182.037-.277a1.89 1.89 0 00.02-.276h.076c.026.097.106.093.192.093h1.65c.086 0 .166-.003.171-.101l.077.014a3.416 3.416 0 00-.034.263c-.008.088-.008.176-.008.264l-.094.036c-.007-.12-.025-.312-.238-.312h-.522v1.735c0 .251.112.28.264.28h.061v.1c-.124 0-.348-.014-.52-.014-.193 0-.417.013-.541.013v-.099h.06c.177 0 .265-.016.265-.273v-1.744h-.524z"/><path fill="#050302" d="M20.422 26.514c-.125 0-.349-.014-.52-.014-.192 0-.416.014-.541.014h-.014v-.126h.074c.177-.004.247-.007.251-.26V24.4h-.509v-.027h.538v1.755c0 .262-.104.29-.28.29h-.046v.068c.126 0 .34-.014.527-.014.166 0 .38.014.506.014v-.069h-.047c-.154 0-.278-.04-.278-.295v-1.75h.538c.214 0 .242.187.249.308l.069-.026c0-.086 0-.171.006-.256.01-.084.02-.167.034-.251l-.05-.008c-.015.096-.104.099-.185.099H19.08c-.076 0-.158-.003-.187-.095h-.052c0 .09-.008.179-.02.264-.009.09-.023.175-.034.262h.067c.042-.227.07-.3.31-.298v.028c-.238.005-.233.047-.285.288l-.003.01h-.123l.003-.016c.013-.092.028-.183.039-.278.012-.09.019-.18.019-.274v-.014h.1l.002.01c.022.082.081.082.164.082h1.664c.09 0 .154 0 .16-.086v-.014l.016.001.089.014-.001.015a4.641 4.641 0 00-.034.262c-.007.088-.007.176-.007.264v.01l-.01.004-.111.042-.002-.018c-.01-.123-.021-.3-.223-.3h-.511v1.721c.002.246.098.262.25.266h.076v.126h-.014zm.675-.112h.044c.115 0 .236-.016.236-.186v-1.708c0-.171-.121-.186-.236-.186h-.044v-.1c.194 0 .526.014.793.014.27 0 .603-.013.82-.013a5.89 5.89 0 00.007.5l-.096.026c-.015-.212-.054-.382-.39-.382h-.445v.854h.381c.192 0 .234-.11.253-.286h.095a7.58 7.58 0 000 .753l-.095.02c-.02-.196-.029-.323-.25-.323h-.384v.758c0 .214.185.214.39.214.384 0 .554-.027.649-.398l.09.023a6.215 6.215 0 00-.108.52c-.205 0-.574-.014-.861-.014-.288 0-.667.013-.85.013v-.099z"/><path fill="#050302" d="M22.807 26.514c-.205 0-.574-.014-.861-.014-.288 0-.667.014-.85.014h-.014v-.126h.06c.117-.002.22-.012.222-.172v-1.708c0-.16-.105-.171-.221-.172h-.059v-.127h.014c.194 0 .526.014.794.014.27 0 .602-.014.82-.014h.013v.014c-.006.165-.004.331.005.497l.001.014-.01.002-.112.03v-.016c-.02-.212-.048-.366-.377-.369h-.43v.827h.367c.183-.003.216-.1.237-.276l.001-.012h.123v.015c-.011.25-.011.502 0 .752v.013l-.01.002-.113.022v-.015c-.021-.2-.022-.307-.236-.31h-.37v.744c0 .2.17.199.377.2.385-.003.54-.022.634-.389l.005-.013.013.004.103.026-.003.014a6.215 6.215 0 00-.108.52l-.003.009h-.012zm-.013-.028c.028-.165.066-.33.105-.494l-.064-.016c-.095.366-.28.397-.658.394-.202 0-.404 0-.404-.225v-.773h.397c.224-.003.246.133.262.32l.069-.016a7.176 7.176 0 010-.727h-.07c-.017.17-.07.289-.264.286h-.394v-.882h.459c.332-.002.387.173.4.377l.07-.018a5.593 5.593 0 01-.006-.474c-.217 0-.541.014-.806.014-.26 0-.584-.014-.78-.014v.069h.031c.114 0 .25.02.25.2v1.71c0 .18-.135.199-.25.2h-.03v.07c.185 0 .554-.015.836-.015.282 0 .641.014.848.014h-.001zm.553-1.918c0-.237-.128-.248-.228-.248h-.057v-.096c.103 0 .3.012.496.012.191 0 .344-.013.514-.013.402 0 .76.11.76.574 0 .294-.19.474-.443.575l.546.835c.09.137.154.176.31.195v.1c-.105 0-.208-.014-.314-.014-.099 0-.2.013-.299.013a9.085 9.085 0 01-.665-1.058h-.21v.699c0 .25.114.262.26.262h.058v.096c-.183 0-.367-.012-.55-.012-.154 0-.303.013-.463.013v-.099h.057c.119 0 .228-.055.228-.176v-1.658zm.41.758h.154c.32 0 .493-.124.493-.51 0-.289-.182-.475-.467-.475-.096 0-.136.01-.18.014v.971z"/><path fill="#050302" d="M25.245 26.514c-.108 0-.209-.014-.313-.014-.097 0-.2.014-.312.008a9.122 9.122 0 01-.661-1.051h-.19v.685c.003.244.1.242.248.246h.073v.126h-.015c-.183 0-.369-.014-.551-.014-.151 0-.302.014-.462.014h-.013v-.126h.069c.116 0 .213-.05.213-.162v-1.658c-.003-.231-.114-.23-.213-.234h-.072v-.125h.014c.103 0 .3.014.496.014.19 0 .343-.014.515-.014.403 0 .773.114.775.588 0 .295-.19.478-.438.582l.538.82c.087.136.144.169.3.19h.011v.125h-.013.001zm-1.489-1.085h.217l.005.007c.207.375.418.728.653 1.05.099 0 .201-.014.301-.014.101 0 .2.013.298.014v-.071c-.148-.02-.218-.065-.306-.2l-.556-.85.015-.007c.25-.1.436-.274.436-.56 0-.453-.345-.559-.747-.56-.169 0-.323.014-.514.014-.19 0-.378-.014-.482-.014v.069h.043c.1 0 .242.016.242.261v1.658c0 .13-.122.19-.242.191h-.043v.07c.154 0 .3-.015.448-.015.18 0 .36.014.537.014v-.069h-.044c-.146 0-.276-.018-.276-.275v-.713h.015zm0-.09h-.013v-.998l.01-.001c.044-.004.087-.014.184-.014.292 0 .48.193.48.492 0 .39-.183.52-.506.522h-.155zm.155-.027c.318-.004.477-.115.48-.496-.002-.283-.176-.46-.454-.461-.086 0-.127.008-.169.01v.946h.143v.001zm3.504.546l.006-.007v-1.223c0-.268-.182-.306-.278-.306h-.07v-.1c.15 0 .297.014.448.014.131 0 .26-.013.393-.013v.099h-.048c-.134 0-.284.025-.284.413v1.485c0 .115.004.228.019.33h-.122l-1.647-1.874v1.345c0 .285.054.381.302.381h.054v.1c-.137 0-.275-.014-.412-.014-.145 0-.292.013-.435.013v-.099h.045c.221 0 .287-.153.287-.413v-1.375a.296.296 0 00-.085-.208.285.285 0 00-.205-.084h-.04v-.1c.12 0 .244.014.364.014.096 0 .189-.013.286-.013l1.423 1.635h-.001z"/><path fill="#050302" d="M27.601 26.562l-.132-.003-1.623-1.846v1.309c.005.282.047.364.288.366h.067v.126h-.013c-.138 0-.276-.014-.414-.014-.141 0-.29.014-.432.014h-.016v-.126h.06c.21 0 .27-.139.272-.4v-1.374a.281.281 0 00-.08-.198.27.27 0 00-.195-.08h-.057v-.127h.015c.122 0 .247.014.367.014.095 0 .187-.014.293-.01l1.407 1.615v-1.2c0-.26-.172-.291-.265-.292h-.083v-.127h.013c.151 0 .297.014.447.014.13 0 .262-.014.394-.014h.014v.127h-.062c-.131.004-.268.013-.27.4v1.484c0 .113.002.226.018.327l.002.016H27.6v-.001zm-.122-.028h.104a2.257 2.257 0 01-.016-.314v-1.485c0-.391.162-.427.299-.428h.033v-.07c-.125 0-.25.015-.378.015-.148 0-.29-.014-.433-.014v.069h.055c.099.001.293.044.293.32l-.005 1.235-.006.006-.01.01-1.422-1.64c-.094 0-.188.014-.285.014-.119 0-.237-.014-.355-.014v.069h.03a.305.305 0 01.304.307v1.373c0 .262-.073.429-.301.43h-.033v.07c.14 0 .281-.015.421-.015.135 0 .268.014.4.014v-.069h-.04c-.252 0-.315-.113-.316-.396v-1.38l1.66 1.893h.001zm-.063-.676l.01-.01-.01.01zm-.008-.007l-.003-.004.003.004zm1.02.183c-.032.11-.071.196-.071.254 0 .098.135.114.24.114h.035v.1a5.349 5.349 0 00-.731 0v-.1h.02c.124 0 .23-.074.277-.212l.51-1.498c.043-.12.101-.283.12-.403.103-.037.23-.1.29-.14.01-.004.017-.008.026-.008.01 0 .016 0 .023.011l.028.082.589 1.705c.038.115.076.234.117.334.04.09.107.13.212.13h.02v.098a8.395 8.395 0 00-.921 0v-.099h.035c.073 0 .198-.014.198-.094a1.029 1.029 0 00-.065-.235l-.124-.379h-.726l-.101.34zm.466-1.446h-.005l-.297.924h.597l-.295-.923v-.001z"/><path fill="#050302" d="M30.13 26.514c-.142-.006-.287-.014-.438-.014-.158 0-.317.008-.48.014h-.014v-.127h.049c.074 0 .183-.017.183-.079a1.113 1.113 0 00-.062-.231l-.121-.37h-.706l-.1.331c-.033.11-.07.197-.07.25 0 .08.121.099.226.099h.05v.127h-.016c-.127-.006-.256-.014-.385-.014-.114 0-.23.008-.344.014h-.016v-.127h.034c.118 0 .218-.069.264-.201l.513-1.498c.04-.121.097-.284.127-.413.1-.036.227-.1.289-.14.01-.003.018-.007.031-.007.008 0 .026 0 .035.019l.028.083.59 1.705c.038.114.076.234.118.33.036.088.096.122.198.122h.033v.127h-.015zm-.904-.028c.157-.007.312-.014.466-.014.149 0 .286.007.425.014v-.069h-.004c-.109 0-.185-.042-.224-.14-.042-.098-.08-.22-.119-.334l-.588-1.705-.027-.079c-.003-.004 0-.004-.004-.004h-.008c-.007 0-.011.003-.02.006a1.21 1.21 0 01-.283.13c-.02.123-.078.286-.12.407l-.51 1.497c-.049.142-.16.22-.292.22h-.005v.07a6.101 6.101 0 01.703-.001v-.068h-.02c-.104 0-.25-.012-.254-.128 0-.065.04-.148.072-.258l.013.004-.013-.005.104-.349h.746l.128.389c.036.104.065.19.065.24-.005.099-.14.106-.212.107h-.021v.069l.002.001zm-.654-.96l.306-.95h.018v.013h-.004.004v-.014h.01l.301.95h-.635zm.037-.028h.56l-.277-.874-.283.873v.001zm.272-.905l.008-.003-.008.003zm1.392-.208c-.24 0-.25.06-.297.298h-.098c.014-.091.03-.182.04-.277a1.89 1.89 0 00.018-.276h.077c.026.097.107.093.192.093h1.65c.086 0 .166-.003.173-.101l.075.014a8.223 8.223 0 00-.034.263c-.006.088-.006.176-.006.264l-.096.036c-.007-.12-.022-.312-.236-.312h-.524v1.735c0 .251.11.28.264.28h.061v.1c-.125 0-.35-.014-.52-.014-.193 0-.417.013-.54.013v-.099h.06c.175 0 .264-.016.264-.273v-1.744h-.523z"/><path fill="#050302" d="M31.532 26.514c-.125 0-.35-.014-.52-.014-.193 0-.417.014-.54.014h-.016v-.126h.074c.177-.004.249-.007.253-.26V24.4h-.51v-.027h.538v1.755c0 .262-.104.288-.28.29h-.046v.068c.125 0 .34-.014.526-.014.166 0 .38.014.506.014v-.069h-.047c-.152-.001-.278-.038-.278-.295v-1.75h.539c.214 0 .243.187.248.308l.07-.026c0-.086 0-.171.007-.256.008-.083.02-.167.031-.251l-.047-.008c-.014.096-.106.1-.185.099h-1.666c-.074 0-.157-.003-.186-.097h-.05c0 .093-.007.18-.02.266-.009.091-.024.177-.037.262h.069c.042-.227.07-.3.309-.298v.028c-.238.005-.232.047-.284.288l-.002.01h-.123l.001-.016c.014-.092.03-.183.038-.277.014-.09.02-.181.02-.275v-.014h.102v.01c.025.082.082.082.164.082l.016.002h1.65c.088 0 .153-.003.16-.088v-.014l.014.001.092.014-.004.015a7.135 7.135 0 00-.034.262c-.006.088-.006.176-.006.264v.01l-.01.004-.113.042V24.7c-.008-.123-.022-.3-.223-.3h-.51v1.721c.002.246.098.262.25.266h.075v.126h-.015zm.69-.112h.045c.114 0 .236-.016.236-.186v-1.708c0-.171-.122-.186-.236-.186h-.045v-.1c.124 0 .316.014.473.014.16 0 .35-.013.502-.013v.099h-.043c-.117 0-.24.015-.24.186v1.708c0 .17.122.186.24.186h.043v.1c-.154 0-.346-.014-.505-.014-.157 0-.346.013-.47.013v-.099z"/><path fill="#050302" d="M33.197 26.514c-.154 0-.346-.014-.505-.014-.157 0-.344.014-.47.014h-.013v-.126h.056c.116-.002.222-.012.222-.172v-1.708c0-.16-.106-.171-.222-.172h-.06v-.127h.016c.125 0 .317.014.472.014.16 0 .351-.014.502-.014h.014v.127h-.057c-.117.001-.223.013-.223.172v1.708c0 .16.106.17.223.172h.058v.126h-.013zm-.014-.028v-.069h-.03c-.114 0-.25-.02-.25-.2v-1.71c0-.18.134-.2.25-.2h.029v-.07c-.147 0-.332.015-.487.015-.152 0-.335-.014-.46-.014v.069h.032c.113 0 .25.02.25.2v1.71c0 .18-.136.199-.25.199h-.031v.069c.124 0 .303-.011.456-.011.155 0 .34.01.49.012h.001zm1.288-2.312c.682 0 1.225.432 1.225 1.126 0 .75-.527 1.25-1.207 1.25-.678 0-1.196-.47-1.196-1.171 0-.678.514-1.205 1.178-1.205zm.05 2.232c.62 0 .728-.558.728-1.033 0-.478-.251-1.055-.783-1.055-.56 0-.727.51-.727.945 0 .585.264 1.143.782 1.143z"/><path fill="#050302" d="M33.28 25.377c-.005-.324.12-.635.344-.865a1.17 1.17 0 01.847-.353v.03c-.31-.006-.61.118-.83.342-.22.225-.341.53-.336.848.001.692.513 1.157 1.182 1.157.675 0 1.195-.493 1.196-1.236 0-.686-.535-1.11-1.212-1.112v-.027c.687 0 1.237.435 1.24 1.139-.002.758-.535 1.262-1.224 1.263-.683-.001-1.207-.476-1.208-1.184v-.002zm.445-.113c.002-.44.17-.96.74-.96.543 0 .797.588.797 1.068 0 .475-.11 1.047-.742 1.047v-.028c.607 0 .714-.544.715-1.02 0-.472-.25-1.038-.77-1.04-.547.002-.71.498-.71.933 0 .58.259 1.126.766 1.127v.028c-.532 0-.794-.568-.796-1.155zm4.125.594l.007-.007v-1.223c0-.268-.182-.306-.278-.306h-.07v-.1c.15 0 .297.014.447.014.13 0 .261-.013.394-.013v.099h-.05c-.135 0-.283.025-.283.413v1.485c0 .115.001.228.019.33h-.122l-1.647-1.874v1.345c0 .285.054.381.301.381h.054v.1c-.138 0-.275-.014-.412-.014-.144 0-.291.013-.436.013v-.099h.046c.222 0 .288-.153.288-.413v-1.375a.295.295 0 00-.086-.209.283.283 0 00-.206-.083h-.042v-.1c.122 0 .246.014.369.014.094 0 .189-.013.283-.013l1.423 1.635z"/><path fill="#050302" d="M38.037 26.562l-.134-.003-1.621-1.846v1.309c.004.282.047.362.286.365h.069v.127h-.014c-.139 0-.275-.013-.412-.013-.144 0-.29.014-.436.014h-.013v-.128h.06c.21 0 .27-.138.272-.4v-1.373a.281.281 0 00-.081-.198.27.27 0 00-.196-.08h-.054v-.126h.012c.123 0 .247.011.369.011.094 0 .186-.01.294-.007l1.404 1.614v-1.199c0-.262-.17-.29-.263-.293h-.085v-.126h.015c.15 0 .297.011.445.011.132 0 .263-.01.396-.01h.013v.123h-.062c-.13.006-.267.017-.27.4v1.486c0 .113.003.228.018.327l.002.016h-.014v-.001zm-.122-.028h.104a2.405 2.405 0 01-.016-.314v-1.485c0-.393.162-.427.298-.428h.034v-.07c-.126 0-.251.015-.38.015-.145 0-.288-.014-.431-.014v.069h.054c.1.001.292.045.292.32l-.002 1.235-.007.006-.01.01-1.424-1.64c-.094 0-.187.014-.283.014-.119 0-.24-.014-.355-.014v.069h.028c.15.001.305.117.305.307v1.375c0 .26-.071.427-.3.427h-.033v.069c.139 0 .282-.013.422-.013.134 0 .266.014.399.014v-.069h-.04c-.253 0-.315-.113-.315-.396v-1.38l1.66 1.893zm-.065-.676l.011-.01-.01.01zm-.007-.007l-.002-.004.002.004zm1.02.183c-.031.11-.07.196-.07.254 0 .098.135.114.24.114h.035v.1a5.312 5.312 0 00-.732 0v-.1h.02c.123 0 .23-.074.277-.212l.512-1.498c.04-.12.1-.283.117-.403.103-.037.23-.1.292-.14.01-.004.016-.008.027-.008.008 0 .013 0 .02.011.011.025.02.055.03.082l.587 1.705c.04.115.077.234.119.334.038.09.107.13.21.13h.02v.098a8.43 8.43 0 00-.92 0v-.099h.035c.073 0 .199-.014.199-.094a1.051 1.051 0 00-.065-.235l-.124-.379h-.727l-.102.34zm.467-1.446h-.006l-.298.924h.598l-.294-.923v-.001z"/><path fill="#050302" d="M40.566 26.514c-.144-.006-.287-.014-.44-.014-.155 0-.316.008-.479.014h-.013v-.126h.048c.074 0 .184-.018.184-.08a1.12 1.12 0 00-.064-.231l-.121-.37h-.706l-.099.331c-.03.11-.07.197-.069.25 0 .08.12.1.226.1h.048v.127h-.013a7.331 7.331 0 00-.386-.014c-.115 0-.23.007-.346.014h-.013v-.127h.03c.122 0 .22-.07.268-.202l.51-1.498c.04-.121.099-.284.127-.413.102-.036.23-.1.29-.14.01-.003.018-.007.032-.007.008 0 .024 0 .035.019l.028.083.589 1.705c.037.114.077.234.118.33.038.088.095.122.198.123h.033v.127h-.013l-.002-.001zm-.907-.028c.16-.007.315-.014.467-.014.149 0 .288.007.427.014v-.069h-.005c-.108 0-.184-.042-.223-.14-.043-.098-.081-.22-.119-.334l-.589-1.705a4.576 4.576 0 01-.027-.079c-.002-.004-.002-.004-.005-.004h-.005c-.007 0-.011.003-.02.006a1.2 1.2 0 01-.283.13c-.02.123-.078.286-.12.407l-.51 1.497a.305.305 0 01-.293.22h-.004v.07a6.068 6.068 0 01.703-.001v-.068h-.02c-.104 0-.25-.012-.254-.128 0-.065.04-.148.072-.258l.013.004-.013-.005.105-.349h.745l.127.389a.987.987 0 01.065.24c-.004.099-.14.106-.21.107h-.024v.07zm-.652-.96l.307-.95h.016v.013h-.003.003v-.014h.01l.302.95h-.635zm.04-.028h.558l-.28-.874-.279.873v.001zm.27-.905l.006-.003-.005.003h-.002zm2.057 1.587c0 .133.087.17.19.184.131.01.274.01.423-.007a.453.453 0 00.306-.177.748.748 0 00.099-.234h.093c-.035.186-.081.37-.119.555-.28 0-.562-.013-.844-.013-.28 0-.561.013-.844.013v-.099h.045c.115 0 .24-.016.24-.218v-1.676c0-.17-.125-.188-.24-.188h-.045v-.096c.17 0 .337.012.505.012.164 0 .324-.013.486-.013v.097h-.08c-.12 0-.215.005-.215.177v1.683z"/><path fill="#050302" d="M42.366 26.514c-.282 0-.562-.014-.844-.014-.28 0-.563.014-.844.014h-.013v-.126h.058c.116-.002.225-.01.227-.204v-1.676c-.002-.16-.11-.171-.227-.172h-.058v-.127h.013c.17 0 .338.014.505.014.162 0 .323-.014.486-.014h.014v.127h-.093c-.124.002-.203-.003-.204.162v1.682c0 .122.08.155.18.168.139.01.279.008.418-.005a.447.447 0 00.297-.17.753.753 0 00.097-.23l.003-.012h.12l-.003.018c-.036.186-.08.37-.119.555l-.002.01h-.011zm-.01-.028c.036-.176.077-.35.113-.526H42.4a.738.738 0 01-.097.23.469.469 0 01-.317.18 2.403 2.403 0 01-.424.007c-.106-.01-.205-.056-.205-.197v-1.682c0-.182.113-.191.232-.191h.065v-.07c-.156 0-.311.015-.472.015-.164 0-.326-.014-.491-.014v.069h.031c.113 0 .254.02.254.2v1.677c0 .211-.14.232-.254.232h-.031v.069c.277 0 .553-.011.83-.011.28 0 .556.012.833.012z"/></g></svg>