<svg xmlns="http://www.w3.org/2000/svg" width="58" height="39"><defs><filter id="a" width="129.6%" height="145.7%" x="-14.8%" y="-22.9%" filterUnits="objectBoundingBox"><feOffset dy="2" in="SourceAlpha" result="shadowOffsetOuter1"/><feGaussianBlur in="shadowOffsetOuter1" result="shadowBlurOuter1" stdDeviation="1"/><feColorMatrix in="shadowBlurOuter1" result="shadowMatrixOuter1" values="0 0 0 0 0 0 0 0 0 0 0 0 0 0 0 0 0 0 0.117385643 0"/><feMerge><feMergeNode in="shadowMatrixOuter1"/><feMergeNode in="SourceGraphic"/></feMerge></filter></defs><g fill="none"><path fill="#FFF" d="M52.2 35H1.8C.808 35 0 34.165 0 33.134V1.866C0 .836.807 0 1.8 0h50.4c.993 0 1.8.835 1.8 1.866v31.268c0 1.03-.807 1.866-1.8 1.866z" filter="url(#a)" transform="translate(2)"/><path fill="#0E0B16" d="M21.927 15.273a4.33 4.33 0 00-5.395-1.097c-1.624.86-2.815 3.14-2.344 4.467l7.739-3.37zm3.996 1.18L12.25 22.419c-1.328-1.867-1.828-5.099-.35-7.889 1.545-2.915 4.738-4.502 7.94-3.948 3.442.61 5.575 3.356 6.082 5.873zm1.398-9.452h2.903v.276c0 4.792.001 9.585-.004 14.378 0 .19.058.27.224.338.72.293 1.434.601 2.148.904.051.022.1.047.173.083l-1.203 2.951c-.39-.164-.756-.317-1.12-.473-.42-.177-.838-.358-1.258-.534-1.188-.496-1.767-1.426-1.857-2.705-.006-.078-.006-.157-.006-.235V7v.001z"/><path fill="#E03626" d="M38.35 25.507l.99-3.01c1.272.398 2.493.3 3.641-.38 1.141-.677 1.836-1.7 2.137-3.018l3.045.636c-.81 4.56-5.643 7.306-9.812 5.772"/><path fill="#FBED21" d="M39.342 13.902l-.983-2.998c3.729-1.48 8.825.8 9.815 5.766l-3.054.637c-.305-1.319-.995-2.345-2.137-3.022-1.142-.675-2.356-.78-3.641-.384"/><path fill="#009CD6" d="M35.763 23.987c-3.408-2.977-3.443-8.553-.004-11.573l2.067 2.382c-.978.92-1.503 2.056-1.501 3.405 0 1.343.517 2.477 1.503 3.403l-2.065 2.383"/><path fill="#0E0B16" d="M21.69 21.441l2.16 2.264c-2.39 2.544-6.528 2.929-9.315 1.012l1.645-2.677c1.97 1.102 3.793.896 5.51-.599"/></g></svg>