<svg xmlns="http://www.w3.org/2000/svg" width="58" height="39"><defs><filter id="a" width="129.6%" height="145.7%" x="-14.8%" y="-22.9%" filterUnits="objectBoundingBox"><feOffset dy="2" in="SourceAlpha" result="shadowOffsetOuter1"/><feGaussianBlur in="shadowOffsetOuter1" result="shadowBlurOuter1" stdDeviation="1"/><feColorMatrix in="shadowBlurOuter1" result="shadowMatrixOuter1" values="0 0 0 0 0 0 0 0 0 0 0 0 0 0 0 0 0 0 0.117385643 0"/><feMerge><feMergeNode in="shadowMatrixOuter1"/><feMergeNode in="SourceGraphic"/></feMerge></filter></defs><g fill="none"><path fill="#FFF" d="M52.2 35H1.8C.808 35 0 34.165 0 33.134V1.866C0 .836.807 0 1.8 0h50.4c.993 0 1.8.835 1.8 1.866v31.268c0 1.03-.807 1.866-1.8 1.866z" filter="url(#a)" transform="translate(2)"/><path fill="#B3131B" d="M48.728 9c-.01.087-.014.172-.031.256l-.794 3.94-.95 4.72c-.342 1.703-.682 3.408-1.03 5.11-.084.42-.141.846-.308 1.246-.18.443-.47.83-.843 1.12-.737.567-1.604.79-2.499.802-2.468.03-4.935.012-7.403.013h-3.88c-6.958.003-13.918.003-20.878.005H10c.007-.06.01-.106.018-.152l.144-.723.95-4.75.913-4.555c.297-1.48.6-2.958.9-4.436.127-.631.407-1.174.887-1.603.756-.672 1.672-.879 2.63-.97l16.188-.005 10.145-.003 3.438-.003c.041 0 .083-.008.125-.012h2.39zm-24.862 7.035c-.328-.195-.686-.235-1.057-.197-.38.037-.722.168-1.02.414-.022.02-.05.035-.084.058l.067-.393c-.236 0-.454-.001-.67.005-.025 0-.062.045-.066.074-.094.574-.18 1.15-.28 1.722-.195 1.134-.397 2.265-.599 3.397-.047.272-.102.54-.156.827.278 0 .539 0 .8-.004.02 0 .054-.04.06-.066.015-.072.016-.146.027-.218l.208-1.37.098-.641.065.102.064.096a.76.76 0 00.35.278c.203.078.41.091.624.078.58-.038 1.07-.254 1.447-.721.249-.307.397-.663.512-1.036.177-.575.282-1.157.107-1.754a1.09 1.09 0 00-.497-.651zm3.924-.101a2.603 2.603 0 00-1.418-.028c-.55.131-.975.43-1.255.937-.23.42-.353.87-.422 1.34-.05.338-.066.676.021 1.01.122.47.419.772.874.893.75.201 1.488.06 2.223-.104.025-.006.049-.047.056-.076.027-.13.05-.262.074-.393l.036-.216-.022.003c-.012 0-.018 0-.024.002a3.104 3.104 0 01-1.452.29 1.384 1.384 0 01-.465-.098c-.324-.132-.472-.404-.495-.729-.019-.275.027-.556.045-.833.002-.06.03-.087.091-.089.22-.005.438-.022.655-.022.648.002 1.293.01 1.939.017.069 0 .104-.014.119-.092.06-.308.118-.615.103-.93-.021-.434-.253-.746-.683-.882zm6.13-.091a4.114 4.114 0 00-1.158.052 1.737 1.737 0 00-1.167.8 3.452 3.452 0 00-.542 1.738c-.016.342-.03.686.126 1.009.155.318.375.558.722.651.648.177 1.28.073 1.906-.111.033-.01.068-.055.075-.091.037-.166.067-.33.097-.499.003-.02-.003-.041-.006-.069-.434.204-.877.31-1.346.262a.886.886 0 01-.386-.143c-.256-.173-.324-.455-.34-.747a3.081 3.081 0 01.169-1.218c.079-.236.188-.46.324-.667.243-.348.624-.421 1.016-.421.351 0 .693.073 1.045.197.034-.215.068-.422.095-.629.001-.018-.047-.057-.074-.062-.185-.02-.37-.035-.555-.052zm11.49-1.723c-.27 0-.531-.002-.792.002-.02 0-.054.044-.056.07l-.146.987c-.04.262-.084.524-.129.805a2.383 2.383 0 00-.945-.16 2.29 2.29 0 00-1.084.264c-.358.197-.65.5-.838.868a3.763 3.763 0 00-.444 1.517c-.023.362-.012.718.132 1.057a.927.927 0 00.407.456c.302.17.631.206.968.193.498-.018.938-.16 1.217-.626.018-.027.038-.052.073-.1l-.077.624h.76l.075-.752c.2-1.75.574-3.467.878-5.205zm-8.443 1.705l-.164.001c-.44.009-.877.058-1.318.094-.025.002-.067.024-.071.044-.053.206-.097.412-.149.638.183-.041.346-.083.512-.114.427-.087.856-.159 1.288-.048.216.055.418.183.386.476l-.045.365c-.006.077-.037.105-.117.105-.343-.003-.686.014-1.029 0a1.953 1.953 0 00-.834.18 1.563 1.563 0 00-.416.237c-.47.404-.618.937-.536 1.544.057.428.303.693.717.772.19.038.388.051.58.054.518.008.936-.202 1.259-.614.027-.036.058-.072.096-.119l-.052.637h.733l.004-.191c.002-.127.005-.25.02-.373.08-.552.174-1.103.257-1.656.062-.423.185-.837.166-1.273a.621.621 0 00-.33-.547c-.349-.2-.739-.217-1.121-.21zm-16.676.103h-.82l-.722 4.156.366-.001.369.002c.075.001.104-.022.112-.098.024-.215.05-.43.088-.643.178-1.027.36-2.053.542-3.082l.065-.334zm20.72-.097l-.121.002c-.25.012-.488.116-.667.294-.131.127-.243.273-.373.423l.105-.632-.562.001c-.15.003-.169.022-.197.174l-.013.074c-.196 1.152-.397 2.3-.595 3.45-.027.151-.057.303-.088.465.28 0 .544.002.807-.003.02 0 .052-.035.054-.059.037-.3.057-.603.108-.9.096-.556.19-1.115.322-1.662a1.34 1.34 0 01.779-.955.222.222 0 01.093-.023c.2.01.405-.034.6.052.046.02.07 0 .079-.052.024-.159.05-.316.08-.473.009-.052-.007-.074-.055-.096a1.04 1.04 0 00-.477-.078zm-26.544-1.593c-.06 0-.067.033-.075.081-.077.482-.149.965-.233 1.447-.21 1.212-.425 2.425-.638 3.634-.038.222-.083.442-.13.682h.615l.298-.003c.023 0 .06-.045.065-.074.027-.127.041-.256.063-.383.131-.781.263-1.56.392-2.342.013-.08.043-.106.126-.106.794.004 1.587.004 2.38 0 .091 0 .113.026.095.114l-.405 2.198-.05.293-.05.303c.317 0 .616.003.917-.003.021 0 .056-.046.06-.077.109-.636.206-1.273.315-1.91.19-1.103.388-2.206.583-3.308.031-.18.068-.357.103-.545-.313 0-.617-.001-.92.003-.02 0-.053.037-.058.06-.1.6-.2 1.2-.297 1.801l-.08.5h-2.605l.422-2.353-.018-.007-.014-.004zm16.497 1.597c-.403.026-.694.262-.92.59-.033.048-.068.093-.103.14a.372.372 0 01-.022-.007l.114-.638.001-.001h-.467l-.225.003c-.02 0-.054.04-.058.067l-.064.434-.544 3.133-.047.259-.05.263h.842l.012-.143.015-.14c.081-.531.155-1.064.251-1.595a6.86 6.86 0 01.23-.915c.084-.255.244-.476.459-.633.13-.097.27-.188.445-.174l.567.039.032-.17c.021-.117.043-.238.063-.36.003-.02-.014-.059-.029-.063l-.252-.062a.861.861 0 00-.25-.027zm-8.629.59c.308-.068.612-.057.887.111.09.06.164.141.216.237.135.231.154.49.128.657-.01.668-.156 1.196-.45 1.685-.29.49-.993.659-1.434.394a.631.631 0 01-.216-.231c-.157-.283-.11-.585-.054-.885.09-.5.178-1.001.272-1.502a.282.282 0 01.084-.146 1.26 1.26 0 01.567-.32zm21.242-.03l.137.014c.135.022.268.063.4.106.059.018.08.043.068.105-.132.672-.255 1.345-.394 2.014-.074.354-.254.65-.575.831-.332.186-.837.238-1.144-.062a.804.804 0 01-.186-.34c-.04-.144-.042-.3-.06-.452.024-.598.145-1.162.475-1.666.167-.275.438-.469.749-.536.125-.026.26-.001.39-.014h.14zm-6.85 1.454l.003.028h.46l.039.002c.046.007.067.033.047.102-.087.306-.149.62-.257.92a1.05 1.05 0 01-.679.64c-.278.096-.55.111-.813-.036a.502.502 0 01-.252-.4 1.141 1.141 0 01.117-.665.881.881 0 01.602-.496c.24-.055.488-.065.732-.095zm-9.874-1.471l.169.004.169.015c.319.036.51.273.5.6-.005.116-.025.232-.037.355h-1.95l.03-.127c.13-.454.43-.8.95-.84l.169-.007zm-6.666-2.21l-.086.01a.723.723 0 00-.305.133c-.195.165-.19.41-.184.643.001.061.049.137.097.18.146.124.489.09.628-.043a.64.64 0 00.208-.524c.001-.222-.034-.311-.188-.372a.462.462 0 00-.256-.018z"/></g></svg>